<?xml version="1.0" encoding="UTF-8" standalone="no"?>
<!-- Created with Inkscape (http://www.inkscape.org/) -->

<svg
   version="1.1"
   id="svg41596"
   xml:space="preserve"
   width="8825.499"
   height="952.58716"
   viewBox="0 0 8825.499 952.58716"
   sodipodi:docname="echo_decay.svg"
   inkscape:version="1.1.2 (0a00cf5339, 2022-02-04)"
   xmlns:inkscape="http://www.inkscape.org/namespaces/inkscape"
   xmlns:sodipodi="http://sodipodi.sourceforge.net/DTD/sodipodi-0.dtd"
   xmlns="http://www.w3.org/2000/svg"
   xmlns:svg="http://www.w3.org/2000/svg"><defs
     id="defs41600" /><sodipodi:namedview
     id="namedview41598"
     pagecolor="#ffffff"
     bordercolor="#666666"
     borderopacity="1.0"
     inkscape:pageshadow="2"
     inkscape:pageopacity="0.0"
     inkscape:pagecheckerboard="0"
     showgrid="false"
     inkscape:zoom="0.082764873"
     inkscape:cx="5044.4106"
     inkscape:cy="718.90402"
     inkscape:window-width="1882"
     inkscape:window-height="1016"
     inkscape:window-x="0"
     inkscape:window-y="0"
     inkscape:window-maximized="1"
     inkscape:current-layer="g41604" /><g
     id="g41602"
     inkscape:groupmode="layer"
     inkscape:label="echo_decay"
     transform="matrix(1.3333333,0,0,1.3333333,0,2.5148012e-5)"><g
       id="g41604"><g
         id="g41606"><path
           d="m 5005.949,641.617 c 105.379,0 122.481,-568.324 199.735,-568.324 67.488,0 103.453,568.324 210.242,568.324"
           style="fill:#ca9f9f;fill-opacity:1;fill-rule:nonzero;stroke:#afafaf;stroke-width:13.5621;stroke-linecap:butt;stroke-linejoin:miter;stroke-miterlimit:4;stroke-dasharray:none;stroke-opacity:1"
           id="path41608" /></g><g
         id="g41610"><path
           d="m 5226.449,641.617 c 105.383,0 122.481,-308.269 199.735,-308.269 67.492,0 103.453,308.269 210.246,308.269"
           style="fill:#ca7575;fill-opacity:1;fill-rule:nonzero;stroke:#8b8b8b;stroke-width:13.5621;stroke-linecap:butt;stroke-linejoin:miter;stroke-miterlimit:4;stroke-dasharray:none;stroke-opacity:1"
           id="path41612" /></g><g
         id="g41614"><path
           d="m 5448.453,641.617 c 105.379,0 122.481,-187.066 199.731,-187.066 67.492,0 103.457,187.066 210.246,187.066"
           style="fill:#ca5454;fill-opacity:1;fill-rule:nonzero;stroke:#595959;stroke-width:13.5621;stroke-linecap:butt;stroke-linejoin:miter;stroke-miterlimit:4;stroke-dasharray:none;stroke-opacity:1"
           id="path41616" /></g><g
         id="g41618"><path
           d="m 5724.453,641.617 c 105.379,0 122.481,-114.359 199.735,-114.359 67.488,0 103.453,114.359 210.242,114.359"
           style="fill:#ca2e2e;fill-opacity:1;fill-rule:nonzero;stroke:#000002;stroke-width:13.5621;stroke-linecap:butt;stroke-linejoin:miter;stroke-miterlimit:4;stroke-dasharray:none;stroke-opacity:1"
           id="path41620" /></g><g
         id="g41622"><path
           d="M 2552.375,641.82 V 75.605 h 366.383 V 641.82"
           style="fill:#ffffff;fill-opacity:1;fill-rule:nonzero;stroke:#eaeaea;stroke-width:13.5581;stroke-linecap:butt;stroke-linejoin:miter;stroke-miterlimit:4;stroke-dasharray:none;stroke-opacity:1"
           id="path41624" /></g><g
         id="g41626"><path
           d="M 2787.879,641.82 V 75.605 h 366.383 V 641.82"
           style="fill:#ffffff;fill-opacity:1;fill-rule:nonzero;stroke:#a1a1a1;stroke-width:13.5581;stroke-linecap:butt;stroke-linejoin:miter;stroke-miterlimit:4;stroke-dasharray:none;stroke-opacity:1"
           id="path41628" /></g><g
         id="g41630"><path
           d="M 3023.379,641.82 V 75.605 h 366.383 V 641.82"
           style="fill:#ffffff;fill-opacity:1;fill-rule:nonzero;stroke:#575757;stroke-width:13.5581;stroke-linecap:butt;stroke-linejoin:miter;stroke-miterlimit:4;stroke-dasharray:none;stroke-opacity:1"
           id="path41632" /></g><g
         id="g41634"><path
           d="M 171.676,641.82 H 757.41 V 75.605 H 963.566 V 641.82 H 3263.75 V 75.605 h 366.383 V 641.82 h 2807.832"
           style="fill:#ffffff;fill-opacity:1;fill-rule:nonzero;stroke:#000000;stroke-width:13.5581;stroke-linecap:butt;stroke-linejoin:miter;stroke-miterlimit:4;stroke-dasharray:none;stroke-opacity:1"
           id="path41636" /></g><g
         id="g41654"
         style="fill:#ca2e2e;fill-opacity:1;stroke:#ca2e2e;stroke-opacity:1"><path
           d="m 2483.395,691.754 h 717.511"
           style="fill:#ca2e2e;stroke:#ca2e2e;stroke-width:13.2576;stroke-linecap:butt;stroke-linejoin:miter;stroke-miterlimit:4;stroke-dasharray:53.0306, 13.2576;stroke-dashoffset:0;stroke-opacity:1;fill-opacity:1"
           id="path41656" /></g><g
         id="g41638"><path
           d="M 756.621,691.754 H 2525.902"
           style="fill:none;stroke:#7d7d7d;stroke-width:13.2566;stroke-linecap:butt;stroke-linejoin:miter;stroke-miterlimit:4;stroke-dasharray:none;stroke-opacity:1"
           id="path41640" /></g><g
         id="g41642"
         style="fill:#ca2e2e;fill-opacity:1;stroke:#ca2e2e;stroke-opacity:1"><path
           d="m 3200.906,691.754 -13.285,13.254 46.399,-13.254 -46.399,-13.258 z"
           style="fill:#ca2e2e;fill-opacity:1;fill-rule:evenodd;stroke:#ca2e2e;stroke-width:3.53506;stroke-linecap:butt;stroke-linejoin:miter;stroke-miterlimit:4;stroke-dasharray:none;stroke-opacity:1"
           id="path41644" /></g><g
         id="g41646"><path
           d="m 756.621,665.355 v 49.086"
           style="fill:none;stroke:#7d7d7d;stroke-width:13.2601;stroke-linecap:butt;stroke-linejoin:miter;stroke-miterlimit:4;stroke-dasharray:none;stroke-opacity:1"
           id="path41648" /></g><g
         id="g41650"><path
           d="m 2516.508,691.754 -13.285,13.254 46.398,-13.254 -46.398,-13.258 z"
           style="fill:#7d7d7d;fill-opacity:1;fill-rule:evenodd;stroke:#7d7d7d;stroke-width:3.53506;stroke-linecap:butt;stroke-linejoin:miter;stroke-miterlimit:4;stroke-dasharray:none;stroke-opacity:1"
           id="path41652" /></g><g
         id="g41658"><path
           d="m 1951.418,641.82 h 108.945"
           style="fill:none;stroke:#000000;stroke-width:13.2591;stroke-linecap:butt;stroke-linejoin:miter;stroke-miterlimit:4;stroke-dasharray:none;stroke-opacity:1"
           id="path41660" /></g><g
         id="g41662"><path
           d="m 6437.965,641.82 -13.285,13.258 46.425,-13.258 -46.425,-13.258 z"
           style="fill:#000000;fill-opacity:1;fill-rule:evenodd;stroke:#000000;stroke-width:3.53602;stroke-linecap:butt;stroke-linejoin:miter;stroke-miterlimit:4;stroke-dasharray:none;stroke-opacity:1"
           id="path41664" /></g><g
         id="g41666"><path
           d="M 171.676,39.582 184.934,52.867 171.676,6.441 158.422,52.867 Z"
           style="fill:#000000;fill-opacity:1;fill-rule:evenodd;stroke:#000000;stroke-width:3.53602;stroke-linecap:butt;stroke-linejoin:miter;stroke-miterlimit:4;stroke-dasharray:none;stroke-opacity:1"
           id="path41668" /></g><g
         id="g41670"><path
           d="m 1373.176,641.82 h 596.875"
           style="fill:none;stroke:#000000;stroke-width:13.2591;stroke-linecap:butt;stroke-linejoin:miter;stroke-miterlimit:4;stroke-dasharray:none;stroke-opacity:1"
           id="path41672" /></g><g
         id="g41674"><path
           d="M 171.676,641.82 V 39.582"
           style="fill:none;stroke:#000000;stroke-width:12.189;stroke-linecap:square;stroke-linejoin:miter;stroke-miterlimit:4;stroke-dasharray:none;stroke-opacity:1"
           id="path41676" /></g><path
         d="m 3487.809,308.977 h -56.196 c -15.07,0 -24.011,17.882 -25.289,20.945 h 1.789 c 0.766,-1.277 6.899,-9.195 15.325,-9.195 h 8.429 l -11.492,34.484 c -3.578,10.727 -16.859,11.238 -16.859,22.223 v 0.765 c 0,2.809 2.043,4.344 6.129,4.344 6.132,0 12.007,-3.832 19.925,-27.078 l 12.004,-34.738 h 16.348 l -7.918,34.996 c -1.277,4.851 -1.789,8.937 -1.789,12.257 v 1.278 c 0,7.152 4.855,13.285 12.773,13.285 3.832,0 8.172,-1.023 8.172,-6.641 v -0.511 c 0,-9.707 -9.703,-8.43 -9.703,-17.371 0,-1.278 0,-2.809 0.508,-4.598 l 8.176,-32.695 h 17.113 z"
         style="fill:#000000;fill-opacity:1;fill-rule:nonzero;stroke:none"
         id="path41678" /><path
         d="m 0,360.941 h 45.977 c 25.543,0 43.168,-13.285 43.168,-32.695 0,-5.875 -2.043,-11.75 -5.618,-15.328 -3.32,-3.574 -6.386,-5.617 -15.07,-9.195 11.75,-2.809 16.348,-4.598 21.711,-9.196 4.598,-4.086 6.894,-9.449 6.894,-16.089 0,-15.329 -11.492,-24.012 -32.437,-24.012 H 22.477 v 2.808 c 9.964,0.766 12.519,2.043 12.519,6.641 0,2.301 -0.512,6.387 -1.789,10.473 L 13.281,346.379 C 10.219,355.832 9.195,356.598 0,358.387 Z m 40.102,-53.898 c 10.472,0 17.371,0.512 20.691,1.789 6.641,2.809 10.727,9.961 10.727,18.902 0,17.625 -12.004,28.352 -31.926,28.352 -6.899,0 -10.473,-2.555 -10.473,-6.895 0,-2.043 2.043,-9.707 5.617,-22.734 2.301,-7.406 3.321,-11.238 5.364,-19.414 z m 12.261,-43.168 c 1.024,-3.574 2.809,-4.34 9.196,-4.34 13.027,0 19.156,5.363 19.156,17.367 0,9.453 -4.086,16.606 -10.981,20.434 -5.621,3.324 -13.285,4.344 -28.097,4.344 z"
         style="fill:#000000;fill-opacity:1;fill-rule:nonzero;stroke:none"
         id="path41680" /><path
         d="m 132.355,308.48 -20.433,10.215 v 1.535 c 1.277,-0.511 2.555,-1.023 3.066,-1.277 2.043,-0.769 3.832,-1.023 5.11,-1.023 2.297,0 3.32,1.531 3.32,5.109 v 51.852 c 0,3.578 -1.023,6.132 -2.813,7.406 -1.531,1.023 -3.32,1.277 -7.917,1.277 v 1.789 h 31.417 v -1.789 c -9.195,0 -10.98,-1.277 -10.98,-6.64 V 308.48 Z"
         style="fill:#000000;fill-opacity:1;fill-rule:nonzero;stroke:none"
         id="path41682" /><path
         d="m 6471.457,489.75 h -13.027 l 4.597,-16.859 c 0,-0.254 0,-0.512 0,-0.766 0,-1.023 -0.511,-1.531 -1.277,-1.531 -1.02,0 -1.531,0 -2.297,1.277 -6.387,8.43 -16.605,16.602 -21.715,18.133 -4.086,1.277 -5.363,2.301 -5.363,4.09 0,0 0,0.254 0.258,0.765 h 12.004 l -11.75,44.957 c -0.254,1.532 -0.512,1.786 -1.02,3.321 -1.277,4.851 -2.555,10.726 -2.555,12.004 0,3.574 3.321,6.129 7.661,6.129 7.664,0 13.027,-4.598 23.246,-19.668 l -2.043,-1.278 c -8.176,10.473 -10.731,13.028 -13.285,13.028 -1.532,0 -2.551,-1.278 -2.551,-3.321 0,-0.254 0,-0.254 0.254,-0.765 l 14.304,-54.407 h 13.793 z"
         style="fill:#000000;fill-opacity:1;fill-rule:nonzero;stroke:none"
         id="path41684" /><path
         d="m 905.746,219.723 h -54.762 c -14.582,0 -23.472,17.425 -24.539,20.625 h 1.778 c 0.715,-1.067 6.757,-8.891 14.937,-8.891 h 8.18 l -11.024,33.43 c -3.558,10.312 -16.714,11.023 -16.714,21.691 v 0.711 c 0,2.844 2.132,4.266 6.046,4.266 6.043,0 11.735,-3.91 19.559,-26.313 l 11.379,-33.785 h 16 l -7.824,34.141 c -1.067,4.621 -1.422,8.531 -1.422,11.734 v 1.422 c 0,6.758 4.625,12.801 12.449,12.801 3.555,0 7.82,-1.067 7.82,-6.399 v -0.711 c 0,-9.246 -9.601,-7.824 -9.601,-16.715 0,-1.421 0.355,-2.843 0.711,-4.625 l 7.824,-31.648 h 16.715 z"
         style="fill:#000000;fill-opacity:1;fill-rule:nonzero;stroke:none"
         id="path41686" /><g
         id="g41688"><path
           d="m 823.25,320.828 h 83.125"
           style="fill:none;stroke:#000000;stroke-width:12.6994;stroke-linecap:butt;stroke-linejoin:miter;stroke-miterlimit:10;stroke-dasharray:none;stroke-opacity:1"
           id="path41690" /></g><path
         d="m 900.547,435.637 -2.133,-0.711 c -5.691,8.89 -7.824,10.312 -14.937,10.312 H 845.426 L 872.098,417.5 c 14.222,-14.938 20.269,-27.027 20.269,-39.473 0,-15.648 -12.801,-27.738 -29.16,-27.738 -8.891,0 -17.07,3.203 -23.113,9.602 -4.981,5.336 -7.469,10.668 -9.957,21.691 l 3.199,0.711 c 6.402,-15.289 12.09,-20.27 23.113,-20.27 13.16,0 22.406,8.891 22.406,22.051 0,12.446 -7.468,27.379 -20.625,41.25 l -28.449,30.227 v 1.777 h 61.875 z"
         style="fill:#000000;fill-opacity:1;fill-rule:nonzero;stroke:none"
         id="path41692" /><g
         id="g41710"
         style="fill:#ca2e2e;fill-opacity:1;stroke:#ca2e2e;stroke-opacity:1"><path
           d="m 4990.336,691.754 h 717.512"
           style="fill:#ca2e2e;stroke:#ca2e2e;stroke-width:13.2576;stroke-linecap:butt;stroke-linejoin:miter;stroke-miterlimit:4;stroke-dasharray:53.0306, 13.2576;stroke-dashoffset:0;stroke-opacity:1;fill-opacity:1"
           id="path41712" /></g><g
         id="g41694"><path
           d="M 3263.562,691.754 H 5032.844"
           style="fill:none;stroke:#7d7d7d;stroke-width:13.2566;stroke-linecap:butt;stroke-linejoin:miter;stroke-miterlimit:4;stroke-dasharray:none;stroke-opacity:1"
           id="path41696" /></g><g
         id="g41698"
         style="fill:#ca2e2e;fill-opacity:1;stroke:#ca2e2e;stroke-opacity:1"><path
           d="m 5707.848,691.754 -13.289,13.254 46.398,-13.254 -46.398,-13.258 z"
           style="fill:#ca2e2e;fill-opacity:1;fill-rule:evenodd;stroke:#ca2e2e;stroke-width:3.53506;stroke-linecap:butt;stroke-linejoin:miter;stroke-miterlimit:4;stroke-dasharray:none;stroke-opacity:1"
           id="path41700" /></g><g
         id="g41702"><path
           d="m 3263.562,665.355 v 49.086"
           style="fill:none;stroke:#7d7d7d;stroke-width:13.2601;stroke-linecap:butt;stroke-linejoin:miter;stroke-miterlimit:4;stroke-dasharray:none;stroke-opacity:1"
           id="path41704" /></g><g
         id="g41706"><path
           d="m 5023.449,691.754 -13.285,13.254 46.395,-13.254 -46.395,-13.258 z"
           style="fill:#7d7d7d;fill-opacity:1;fill-rule:evenodd;stroke:#7d7d7d;stroke-width:3.53506;stroke-linecap:butt;stroke-linejoin:miter;stroke-miterlimit:4;stroke-dasharray:none;stroke-opacity:1"
           id="path41708" /></g><path
         d="m 5404.176,153.953 29.25,-10.269 v -3.114 c -3.422,0.313 -4.043,0.313 -4.356,0.313 -7.156,0 -8.711,-2.176 -8.711,-11.512 V 17.039 l -1.246,-0.625 c -9.336,3.426 -16.492,5.293 -28.937,8.715 v 3.422 c 1.554,-0.313 2.488,-0.313 4.355,-0.313 7.157,0 9.024,1.867 9.024,9.957 v 31.117 c -7.469,-6.222 -13.071,-8.398 -20.848,-8.398 -22.715,0 -41.387,22.402 -41.387,50.406 0,25.52 14.938,42.633 36.719,42.633 11.203,0 18.668,-3.734 25.516,-13.07 v 12.449 z m -0.621,-22.094 c 0,1.246 -1.555,3.735 -3.422,5.914 -3.426,4.043 -8.403,5.911 -14.317,5.911 -16.492,0 -27.382,-15.872 -27.382,-40.141 0,-22.406 9.648,-37.34 24.894,-37.34 10.582,0 20.227,9.336 20.227,19.914 z"
         style="fill:#000000;fill-opacity:1;fill-rule:nonzero;stroke:none"
         id="path41714" /><path
         d="m 5516.137,119.414 c -9.336,15.246 -18.047,20.848 -30.805,20.848 -11.203,0 -19.605,-5.602 -25.516,-17.114 -3.425,-7.468 -4.98,-14.003 -5.289,-26.14 h 60.989 c -1.559,-12.758 -3.422,-18.668 -8.403,-24.895 -5.914,-7.156 -15.246,-11.199 -25.515,-11.199 -9.957,0 -19.293,3.422 -26.762,10.266 -9.336,8.093 -14.625,22.093 -14.625,38.277 0,27.691 14.316,44.496 37.031,44.496 18.981,0 33.918,-11.515 42.317,-32.984 z m -61.301,-28.629 c 2.18,-15.558 9.023,-23.027 21.16,-23.027 12.137,0 16.805,5.601 19.293,23.027 z"
         style="fill:#000000;fill-opacity:1;fill-rule:nonzero;stroke:none"
         id="path41716" /><path
         d="m 5602.363,120.969 c -9.648,14.004 -16.804,18.672 -28.008,18.672 -18.046,0 -30.804,-15.871 -30.804,-38.586 0,-20.539 10.89,-34.543 27.07,-34.543 7.156,0 9.649,2.179 11.516,9.648 l 1.242,4.356 c 1.559,5.601 5.293,9.023 9.336,9.023 5.289,0 9.648,-3.734 9.648,-8.402 0,-10.891 -14.004,-20.223 -30.496,-20.223 -9.957,0 -19.914,3.734 -28.004,10.891 -9.961,8.711 -15.558,22.402 -15.558,37.961 0,25.828 15.558,44.187 37.648,44.187 9.027,0 16.805,-3.113 23.961,-9.336 5.602,-4.668 9.336,-9.957 15.246,-21.781 z"
         style="fill:#000000;fill-opacity:1;fill-rule:nonzero;stroke:none"
         id="path41718" /><path
         d="m 5699.164,139.016 c -3.422,2.8 -5.91,3.734 -8.711,3.734 -4.668,0 -5.914,-2.801 -5.914,-11.512 V 92.652 c 0,-10.582 -0.934,-16.179 -4.043,-20.847 -4.355,-7.157 -12.758,-10.891 -24.582,-10.891 -18.672,0 -33.297,9.645 -33.297,22.09 0,4.668 3.735,8.402 8.403,8.402 4.668,0 9.023,-3.734 9.023,-8.09 0,-0.933 -0.313,-1.867 -0.313,-3.421 -0.621,-1.555 -0.621,-3.114 -0.621,-4.668 0,-5.289 6.223,-9.645 14.313,-9.645 9.648,0 14.937,5.598 14.937,16.488 v 12.137 c -30.496,12.137 -33.918,13.691 -42.32,21.473 -4.355,3.734 -7.156,10.578 -7.156,17.113 0,12.445 8.715,21.16 20.847,21.16 8.715,0 16.805,-4.047 28.942,-14.312 0.933,10.265 4.355,14.312 12.758,14.312 6.535,0 10.89,-2.18 17.734,-9.957 z m -30.805,-11.204 c 0,5.915 -0.933,7.782 -4.976,10.27 -4.981,2.801 -10.582,4.356 -14.625,4.356 -6.848,0 -12.449,-6.532 -12.449,-15.247 v -0.621 c 0,-11.824 8.089,-18.98 32.05,-27.695 z"
         style="fill:#000000;fill-opacity:1;fill-rule:nonzero;stroke:none"
         id="path41720" /><path
         d="m 5793.793,62.781 h -26.762 v 2.801 c 6.223,0 9.645,1.863 9.645,4.977 0,0.933 -0.309,2.179 -0.934,3.421 l -19.289,54.766 -22.719,-50.098 c -1.242,-2.8 -2.175,-5.289 -2.175,-7.468 0,-3.735 3.109,-4.977 11.511,-5.598 v -2.801 h -40.761 v 2.801 c 5.289,0.621 8.402,2.797 9.957,6.223 l 22.714,48.851 0.622,1.559 3.113,5.91 c 5.601,9.957 8.711,17.113 8.711,20.227 0,2.8 -4.664,15.558 -8.09,21.468 -2.801,4.981 -7.156,8.715 -9.957,8.715 -0.934,0 -2.801,-0.312 -4.977,-1.246 -3.734,-1.242 -7.16,-2.176 -10.269,-2.176 -4.668,0 -8.715,4.043 -8.715,8.711 0,6.535 6.535,11.516 14.625,11.516 13.383,0 23.027,-11.203 33.609,-39.832 l 30.493,-80.903 c 2.8,-6.226 4.98,-8.402 9.648,-9.023 z"
         style="fill:#000000;fill-opacity:1;fill-rule:nonzero;stroke:none"
         id="path41722" /><path
         d="m 5833.559,60.914 -30.805,10.891 v 2.8 h 1.555 c 2.492,-0.625 4.98,-0.625 6.847,-0.625 4.668,0 6.535,3.114 6.535,11.825 v 46.054 c 0,14.313 -2.179,16.493 -15.871,17.114 v 3.113 h 46.989 v -3.113 c -13.071,-0.934 -14.625,-2.801 -14.625,-17.114 V 61.223 Z m -9.332,-44.5 c -5.602,0 -9.957,4.668 -9.957,10.27 0,5.601 4.355,9.957 9.957,9.957 5.601,0 10.265,-4.356 10.265,-9.957 0,-5.602 -4.664,-10.27 -10.265,-10.27 z"
         style="fill:#000000;fill-opacity:1;fill-rule:nonzero;stroke:none"
         id="path41724" /><path
         d="m 5856.977,73.047 c 1.246,-0.621 3.113,-0.621 5.289,-0.621 5.601,0 7.468,2.801 7.468,12.445 v 49.477 c 0,11.203 -2.175,14.004 -12.445,14.625 v 3.113 h 42.32 v -3.113 c -10.269,-0.621 -13.07,-3.11 -13.07,-10.266 V 83.004 c 9.336,-9.024 13.691,-11.199 20.227,-11.199 9.957,0 14.625,5.91 14.625,18.98 v 41.695 c 0,12.45 -2.493,15.872 -12.45,16.493 v 3.113 h 41.075 v -3.113 c -9.645,-0.934 -11.825,-3.11 -11.825,-13.067 V 90.473 c 0,-18.668 -9.023,-29.559 -23.648,-29.559 -9.023,0 -15.246,3.109 -28.625,15.867 V 61.223 l -1.559,-0.309 c -9.644,3.422 -16.492,5.598 -27.382,8.711 z"
         style="fill:#000000;fill-opacity:1;fill-rule:nonzero;stroke:none"
         id="path41726" /><path
         d="m 6046.418,74.914 v -7.469 h -15.246 c -4.047,0 -7.156,-0.621 -10.891,-2.175 l -4.355,-1.555 c -5.602,-1.867 -10.895,-2.801 -15.871,-2.801 -18.672,0 -33.297,14 -33.297,32.359 0,12.45 5.293,19.915 18.359,26.45 -3.734,3.425 -7.156,6.847 -8.402,8.089 -6.531,5.602 -9.024,9.649 -9.024,13.692 0,4.047 2.18,6.535 10.27,10.269 -14.004,10.582 -19.293,17.118 -19.293,24.274 0,10.578 15.559,19.293 34.23,19.293 14.934,0 30.493,-5.293 40.762,-13.383 7.469,-6.223 10.891,-12.445 10.891,-20.227 0,-12.132 -9.336,-20.535 -23.961,-21.16 l -25.516,-1.242 c -10.578,-0.312 -15.558,-2.18 -15.558,-5.289 0,-4.047 6.535,-10.891 11.824,-12.449 1.867,0 3.113,0.312 3.734,0.312 3.735,0.313 6.535,0.621 7.781,0.621 7.157,0 15.247,-3.109 21.161,-8.402 6.535,-5.598 9.644,-12.445 9.644,-22.402 0,-5.602 -0.933,-10.27 -3.734,-16.805 z m -64.102,77.484 c 6.536,1.555 22.407,2.797 32.051,2.797 18.051,0 24.582,2.493 24.582,9.649 0,11.511 -14.933,19.293 -37.34,19.293 -17.425,0 -28.937,-5.914 -28.937,-14.625 0,-4.668 1.246,-7.157 9.644,-17.114 z m 0.934,-67.527 c 0,-11.512 5.602,-18.668 14.625,-18.668 6.223,0 11.516,3.422 14.625,9.336 3.426,7.156 5.914,16.18 5.914,23.957 0,11.203 -5.914,18.051 -14.937,18.051 -11.825,0 -20.227,-12.758 -20.227,-32.051 z"
         style="fill:#000000;fill-opacity:1;fill-rule:nonzero;stroke:none"
         id="path41728" /><g
         id="g41730"><path
           d="m 5191.785,29.234 c 104.731,280.981 426.274,529.594 1185.317,529.594"
           style="fill:none;stroke:#000000;stroke-width:11.3386;stroke-linecap:butt;stroke-linejoin:miter;stroke-miterlimit:4;stroke-dasharray:68.0315, 11.3386;stroke-dashoffset:0;stroke-opacity:1"
           id="path41732" /></g><path
         d="m 6182.773,119.414 c -9.332,15.246 -18.046,20.848 -30.804,20.848 -11.203,0 -19.602,-5.602 -25.516,-17.114 -3.422,-7.468 -4.98,-14.003 -5.289,-26.14 h 60.988 c -1.554,-12.758 -3.422,-18.668 -8.402,-24.895 -5.91,-7.156 -15.246,-11.199 -25.516,-11.199 -9.957,0 -19.293,3.422 -26.761,10.266 -9.332,8.093 -14.625,22.093 -14.625,38.277 0,27.691 14.316,44.496 37.031,44.496 18.98,0 33.918,-11.515 42.32,-32.984 z m -61.3,-28.629 c 2.179,-15.558 9.027,-23.027 21.16,-23.027 12.137,0 16.805,5.601 19.293,23.027 z"
         style="fill:#000000;fill-opacity:1;fill-rule:nonzero;stroke:none"
         id="path41734" /><path
         d="m 6269,120.969 c -9.648,14.004 -16.805,18.672 -28.004,18.672 -18.051,0 -30.808,-15.871 -30.808,-38.586 0,-20.539 10.89,-34.543 27.074,-34.543 7.156,0 9.644,2.179 11.511,9.648 l 1.247,4.356 c 1.554,5.601 5.289,9.023 9.332,9.023 5.293,0 9.648,-3.734 9.648,-8.402 0,-10.891 -14.004,-20.223 -30.496,-20.223 -9.957,0 -19.914,3.734 -28.004,10.891 -9.957,8.711 -15.559,22.402 -15.559,37.961 0,25.828 15.559,44.187 37.653,44.187 9.023,0 16.801,-3.113 23.961,-9.336 5.597,-4.668 9.332,-9.957 15.246,-21.781 z"
         style="fill:#000000;fill-opacity:1;fill-rule:nonzero;stroke:none"
         id="path41736" /><path
         d="m 6309.172,83.938 c 8.402,-9.024 14.312,-12.446 22.094,-12.446 9.957,0 14.933,7.156 14.933,21.16 v 39.207 c 0,13.379 -2.176,16.18 -13.691,17.114 v 3.113 h 42.32 v -3.113 c -10.89,-1.868 -12.137,-3.422 -12.137,-17.114 V 92.34 c 0,-20.848 -8.089,-31.426 -24.269,-31.426 -11.824,0 -19.914,4.668 -29.25,16.492 V 17.039 l -0.934,-0.625 c -6.847,2.492 -11.824,4.047 -22.715,7.156 l -5.601,1.559 v 3.422 c 0.933,-0.313 1.555,-0.313 2.488,-0.313 8.402,0 10.27,1.559 10.27,9.957 v 93.664 c 0,14.004 -1.246,15.559 -12.758,17.114 v 3.113 h 42.941 v -3.113 c -11.515,-0.934 -13.691,-3.422 -13.691,-17.114 z"
         style="fill:#000000;fill-opacity:1;fill-rule:nonzero;stroke:none"
         id="path41738" /><path
         d="m 6427.043,60.914 c -25.828,0 -43.875,18.981 -43.875,46.363 0,26.762 18.359,46.676 43.254,46.676 25.203,0 44.183,-20.848 44.183,-48.23 0,-26.141 -18.359,-44.809 -43.562,-44.809 z m -2.801,5.289 c 16.805,0 28.317,19.293 28.317,46.363 0,22.407 -8.711,36.098 -23.649,36.098 -7.777,0 -15.246,-4.98 -19.293,-12.758 -5.601,-10.269 -8.711,-24.273 -8.711,-38.277 0,-18.981 9.332,-31.426 23.336,-31.426 z"
         style="fill:#000000;fill-opacity:1;fill-rule:nonzero;stroke:none"
         id="path41740" /><path
         d="m 1508.48,462.52 h -27.382 v 2.8 c 6.222,0.621 9.336,2.797 9.336,6.532 0,1.867 -0.622,4.046 -1.246,5.914 l -19.602,51.343 -20.227,-50.722 c -1.246,-2.801 -1.867,-5.602 -1.867,-7.469 0,-3.422 2.18,-4.977 9.024,-5.598 v -2.8 h -38.895 v 2.8 c 7.465,0.621 9.024,2.489 18.047,23.024 l 23.961,56.945 c 0.309,1.246 0.933,2.488 1.555,4.047 1.246,3.734 2.488,5.289 3.421,5.289 1.247,0 2.801,-2.488 5.602,-9.957 l 25.516,-63.789 c 5.601,-13.383 6.847,-14.938 12.757,-15.559 z"
         style="fill:#ca2e2e;fill-opacity:1;fill-rule:nonzero;stroke:none"
         id="path41742" /><path
         d="m 1595.879,538.754 c -3.426,2.801 -5.914,3.734 -8.715,3.734 -4.668,0 -5.91,-2.8 -5.91,-11.511 v -38.586 c 0,-10.579 -0.934,-16.18 -4.047,-20.848 -4.355,-7.156 -12.758,-10.891 -24.582,-10.891 -18.672,0 -33.297,9.645 -33.297,22.09 0,4.668 3.734,8.403 8.402,8.403 4.668,0 9.024,-3.735 9.024,-8.09 0,-0.934 -0.309,-1.867 -0.309,-3.422 -0.625,-1.555 -0.625,-3.113 -0.625,-4.668 0,-5.289 6.223,-9.645 14.317,-9.645 9.644,0 14.933,5.598 14.933,16.492 v 12.133 c -30.492,12.137 -33.918,13.692 -42.316,21.473 -4.359,3.734 -7.16,10.578 -7.16,17.113 0,12.446 8.715,21.16 20.851,21.16 8.711,0 16.801,-4.046 28.938,-14.312 0.933,10.266 4.355,14.312 12.758,14.312 6.535,0 10.89,-2.179 17.738,-9.957 z m -30.809,-11.203 c 0,5.914 -0.933,7.781 -4.976,10.269 -4.981,2.801 -10.582,4.356 -14.625,4.356 -6.848,0 -12.449,-6.531 -12.449,-15.246 v -0.621 c 0,-11.825 8.093,-18.981 32.05,-27.696 z"
         style="fill:#ca2e2e;fill-opacity:1;fill-rule:nonzero;stroke:none"
         id="path41744" /><path
         d="m 1597.465,474.344 c 2.801,-0.625 4.668,-0.625 7.156,-0.625 4.977,0 6.535,3.113 6.535,11.824 v 49.477 c 0,9.957 -1.246,11.515 -14.004,13.691 v 3.113 h 47.61 v -3.113 c -13.379,-0.309 -16.805,-3.422 -16.805,-14.625 v -44.809 c 0,-6.222 8.715,-16.179 14.004,-16.179 1.246,0 2.801,0.933 4.98,2.8 3.422,2.801 5.598,4.047 8.09,4.047 4.668,0 7.778,-3.425 7.778,-9.027 0,-6.531 -4.356,-10.266 -10.891,-10.266 -8.402,0 -14.313,4.356 -23.961,18.36 v -18.051 l -0.934,-0.309 c -10.578,4.356 -17.734,6.844 -29.558,10.578 z"
         style="fill:#ca2e2e;fill-opacity:1;fill-rule:nonzero;stroke:none"
         id="path41746" /><path
         d="m 1697.141,460.652 -30.809,10.891 v 2.801 h 1.559 c 2.488,-0.625 4.976,-0.625 6.843,-0.625 4.668,0 6.536,3.113 6.536,11.824 v 46.055 c 0,14.312 -2.18,16.492 -15.872,17.113 v 3.113 h 46.989 v -3.113 c -13.071,-0.934 -14.625,-2.801 -14.625,-17.113 v -70.637 z m -9.336,-44.5 c -5.602,0 -9.957,4.668 -9.957,10.27 0,5.601 4.355,9.957 9.957,9.957 5.601,0 10.265,-4.356 10.265,-9.957 0,-5.602 -4.664,-10.27 -10.265,-10.27 z"
         style="fill:#ca2e2e;fill-opacity:1;fill-rule:nonzero;stroke:none"
         id="path41748" /><path
         d="m 1805.195,538.754 c -3.425,2.801 -5.914,3.734 -8.715,3.734 -4.668,0 -5.91,-2.8 -5.91,-11.511 v -38.586 c 0,-10.579 -0.933,-16.18 -4.047,-20.848 -4.355,-7.156 -12.757,-10.891 -24.582,-10.891 -18.671,0 -33.296,9.645 -33.296,22.09 0,4.668 3.734,8.403 8.402,8.403 4.668,0 9.023,-3.735 9.023,-8.09 0,-0.934 -0.308,-1.867 -0.308,-3.422 -0.625,-1.555 -0.625,-3.113 -0.625,-4.668 0,-5.289 6.226,-9.645 14.316,-9.645 9.645,0 14.934,5.598 14.934,16.492 v 12.133 c -30.492,12.137 -33.918,13.692 -42.317,21.473 -4.359,3.734 -7.16,10.578 -7.16,17.113 0,12.446 8.715,21.16 20.852,21.16 8.711,0 16.8,-4.046 28.937,-14.312 0.934,10.266 4.356,14.312 12.758,14.312 6.535,0 10.891,-2.179 17.738,-9.957 z m -30.808,-11.203 c 0,5.914 -0.934,7.781 -4.977,10.269 -4.98,2.801 -10.582,4.356 -14.625,4.356 -6.847,0 -12.449,-6.531 -12.449,-15.246 v -0.621 c 0,-11.825 8.094,-18.981 32.051,-27.696 z"
         style="fill:#ca2e2e;fill-opacity:1;fill-rule:nonzero;stroke:none"
         id="path41750" /><path
         d="m 1836.031,416.777 -1.246,-0.625 c -8.09,3.114 -13.691,4.668 -23.027,7.16 l -5.602,1.555 v 3.422 c 1.246,-0.312 1.867,-0.312 3.426,-0.312 7.777,0 9.645,1.867 9.645,9.961 v 103.304 c 0,5.914 16.804,12.449 32.671,12.449 26.45,0 46.676,-21.781 46.676,-50.097 0,-24.582 -15.246,-42.942 -35.16,-42.942 -12.137,0 -23.648,6.844 -27.383,16.801 z m 0,71.258 c 0,-7.781 9.332,-14.937 19.602,-14.937 15.558,0 25.207,15.246 25.207,39.519 0,22.094 -9.336,34.852 -25.516,34.852 -10.582,0 -19.293,-4.668 -19.293,-9.649 z"
         style="fill:#ca2e2e;fill-opacity:1;fill-rule:nonzero;stroke:none"
         id="path41752" /><path
         d="m 1908.473,428.289 h 1.242 c 2.18,-0.312 4.668,-0.621 6.223,-0.621 6.226,0 8.402,2.801 8.402,12.133 v 94.597 c 0,10.891 -2.801,13.379 -15.559,14.313 v 3.113 h 46.989 v -3.113 c -12.446,-0.621 -14.938,-2.801 -14.938,-13.691 V 416.777 l -0.621,-0.625 c -10.578,3.426 -18.047,5.293 -31.738,8.715 z"
         style="fill:#ca2e2e;fill-opacity:1;fill-rule:nonzero;stroke:none"
         id="path41754" /><path
         d="m 2040.797,519.152 c -9.332,15.246 -18.047,20.848 -30.805,20.848 -11.203,0 -19.605,-5.602 -25.515,-17.113 -3.422,-7.469 -4.981,-14.004 -5.289,-26.141 h 60.988 c -1.555,-12.758 -3.422,-18.668 -8.403,-24.894 -5.91,-7.157 -15.246,-11.2 -25.515,-11.2 -9.957,0 -19.293,3.422 -26.762,10.266 -9.332,8.094 -14.625,22.094 -14.625,38.277 0,27.692 14.317,44.496 37.031,44.496 18.981,0 33.918,-11.515 42.321,-32.984 z m -61.301,-28.629 c 2.18,-15.558 9.024,-23.027 21.16,-23.027 12.137,0 16.805,5.602 19.293,23.027 z"
         style="fill:#ca2e2e;fill-opacity:1;fill-rule:nonzero;stroke:none"
         id="path41756" /><path
         d="m 2190.941,464.387 h -59.746 c -18.359,0 -31.117,21.781 -32.984,25.515 h 2.18 c 1.246,-1.558 9.336,-11.203 19.605,-11.203 h 22.402 l -13.378,42.942 c -1.868,6.535 -3.114,12.445 -3.114,16.492 0,8.402 4.356,15.871 14.313,15.871 4.668,0 10.269,-1.246 10.269,-8.402 0,-11.204 -9.957,-10.27 -9.957,-19.914 0,-1.868 0.313,-4.047 1.246,-7.161 l 13.067,-39.828 h 31.742 z"
         style="fill:#ca2e2e;fill-opacity:1;fill-rule:nonzero;stroke:none"
         id="path41758" /><path
         d="m 6061.206,224.08163 h -39.7118 c -12.2028,0 -20.6828,14.47735 -21.9236,16.95926 h 1.4489 c 0.8282,-1.03557 6.2054,-7.44639 13.0311,-7.44639 h 14.89 l -8.892,28.5426 c -1.2416,4.34367 -2.0698,8.27191 -2.0698,10.96186 0,5.58463 2.8953,10.54911 9.5135,10.54911 3.1027,0 6.8256,-0.82819 6.8256,-5.58463 0,-7.44705 -6.6182,-6.82624 -6.6182,-13.23639 0,-1.24162 0.208,-2.68995 0.8281,-4.75976 l 8.6854,-26.47279 h 21.0982 z"
         style="fill:#000000;fill-opacity:1;fill-rule:nonzero;stroke:none;stroke-width:0.664677"
         id="path41758-3" /><path
         d="m 4092.105,462.52 h -27.382 v 2.8 c 6.222,0.621 9.336,2.797 9.336,6.532 0,1.867 -0.625,4.046 -1.247,5.914 l -19.601,51.343 -20.227,-50.722 c -1.246,-2.801 -1.867,-5.602 -1.867,-7.469 0,-3.422 2.176,-4.977 9.024,-5.598 v -2.8 h -38.899 v 2.8 c 7.469,0.621 9.028,2.489 18.051,23.024 l 23.957,56.945 c 0.312,1.246 0.934,2.488 1.559,4.047 1.242,3.734 2.488,5.289 3.421,5.289 1.247,0 2.801,-2.488 5.602,-9.957 l 25.516,-63.789 c 5.601,-13.383 6.843,-14.938 12.757,-15.559 z"
         style="fill:#ca2e2e;fill-opacity:1;fill-rule:nonzero;stroke:none"
         id="path41760" /><path
         d="m 4179.5,538.754 c -3.422,2.801 -5.91,3.734 -8.711,3.734 -4.668,0 -5.914,-2.8 -5.914,-11.511 v -38.586 c 0,-10.579 -0.934,-16.18 -4.043,-20.848 -4.355,-7.156 -12.758,-10.891 -24.582,-10.891 -18.672,0 -33.297,9.645 -33.297,22.09 0,4.668 3.735,8.403 8.402,8.403 4.668,0 9.024,-3.735 9.024,-8.09 0,-0.934 -0.313,-1.867 -0.313,-3.422 -0.621,-1.555 -0.621,-3.113 -0.621,-4.668 0,-5.289 6.223,-9.645 14.313,-9.645 9.648,0 14.937,5.598 14.937,16.492 v 12.133 c -30.496,12.137 -33.918,13.692 -42.32,21.473 -4.355,3.734 -7.156,10.578 -7.156,17.113 0,12.446 8.715,21.16 20.847,21.16 8.715,0 16.805,-4.046 28.942,-14.312 0.933,10.266 4.355,14.312 12.758,14.312 6.535,0 10.89,-2.179 17.734,-9.957 z m -30.805,-11.203 c 0,5.914 -0.933,7.781 -4.976,10.269 -4.981,2.801 -10.582,4.356 -14.625,4.356 -6.848,0 -12.449,-6.531 -12.449,-15.246 v -0.621 c 0,-11.825 8.089,-18.981 32.05,-27.696 z"
         style="fill:#ca2e2e;fill-opacity:1;fill-rule:nonzero;stroke:none"
         id="path41762" /><path
         d="m 4181.086,474.344 c 2.801,-0.625 4.668,-0.625 7.16,-0.625 4.977,0 6.535,3.113 6.535,11.824 v 49.477 c 0,9.957 -1.246,11.515 -14.004,13.691 v 3.113 h 47.61 v -3.113 c -13.383,-0.309 -16.805,-3.422 -16.805,-14.625 v -44.809 c 0,-6.222 8.715,-16.179 14.004,-16.179 1.242,0 2.801,0.933 4.976,2.8 3.426,2.801 5.602,4.047 8.094,4.047 4.664,0 7.778,-3.425 7.778,-9.027 0,-6.531 -4.356,-10.266 -10.891,-10.266 -8.402,0 -14.313,4.356 -23.961,18.36 v -18.051 l -0.934,-0.309 c -10.578,4.356 -17.734,6.844 -29.562,10.578 z"
         style="fill:#ca2e2e;fill-opacity:1;fill-rule:nonzero;stroke:none"
         id="path41764" /><path
         d="m 4280.762,460.652 -30.805,10.891 v 2.801 h 1.555 c 2.492,-0.625 4.98,-0.625 6.847,-0.625 4.668,0 6.536,3.113 6.536,11.824 v 46.055 c 0,14.312 -2.18,16.492 -15.872,17.113 v 3.113 h 46.989 v -3.113 c -13.071,-0.934 -14.625,-2.801 -14.625,-17.113 v -70.637 z m -9.332,-44.5 c -5.602,0 -9.961,4.668 -9.961,10.27 0,5.601 4.359,9.957 9.961,9.957 5.597,0 10.265,-4.356 10.265,-9.957 0,-5.602 -4.668,-10.27 -10.265,-10.27 z"
         style="fill:#ca2e2e;fill-opacity:1;fill-rule:nonzero;stroke:none"
         id="path41766" /><path
         d="m 4388.816,538.754 c -3.421,2.801 -5.91,3.734 -8.711,3.734 -4.667,0 -5.914,-2.8 -5.914,-11.511 v -38.586 c 0,-10.579 -0.933,-16.18 -4.043,-20.848 -4.355,-7.156 -12.757,-10.891 -24.582,-10.891 -18.671,0 -33.296,9.645 -33.296,22.09 0,4.668 3.734,8.403 8.402,8.403 4.668,0 9.023,-3.735 9.023,-8.09 0,-0.934 -0.312,-1.867 -0.312,-3.422 -0.621,-1.555 -0.621,-3.113 -0.621,-4.668 0,-5.289 6.222,-9.645 14.312,-9.645 9.649,0 14.938,5.598 14.938,16.492 v 12.133 c -30.496,12.137 -33.918,13.692 -42.321,21.473 -4.355,3.734 -7.156,10.578 -7.156,17.113 0,12.446 8.715,21.16 20.848,21.16 8.715,0 16.805,-4.046 28.941,-14.312 0.934,10.266 4.356,14.312 12.758,14.312 6.535,0 10.891,-2.179 17.734,-9.957 z m -30.804,-11.203 c 0,5.914 -0.934,7.781 -4.977,10.269 -4.98,2.801 -10.582,4.356 -14.625,4.356 -6.848,0 -12.449,-6.531 -12.449,-15.246 v -0.621 c 0,-11.825 8.09,-18.981 32.051,-27.696 z"
         style="fill:#ca2e2e;fill-opacity:1;fill-rule:nonzero;stroke:none"
         id="path41768" /><path
         d="m 4419.652,416.777 -1.242,-0.625 c -8.09,3.114 -13.691,4.668 -23.027,7.16 l -5.602,1.555 v 3.422 c 1.246,-0.312 1.867,-0.312 3.422,-0.312 7.781,0 9.649,1.867 9.649,9.961 v 103.304 c 0,5.914 16.8,12.449 32.671,12.449 26.45,0 46.676,-21.781 46.676,-50.097 0,-24.582 -15.246,-42.942 -35.16,-42.942 -12.137,0 -23.652,6.844 -27.387,16.801 z m 0,71.258 c 0,-7.781 9.336,-14.937 19.606,-14.937 15.558,0 25.203,15.246 25.203,39.519 0,22.094 -9.332,34.852 -25.516,34.852 -10.578,0 -19.293,-4.668 -19.293,-9.649 z"
         style="fill:#ca2e2e;fill-opacity:1;fill-rule:nonzero;stroke:none"
         id="path41770" /><path
         d="m 4492.094,428.289 h 1.246 c 2.18,-0.312 4.668,-0.621 6.222,-0.621 6.223,0 8.403,2.801 8.403,12.133 v 94.597 c 0,10.891 -2.801,13.379 -15.559,14.313 v 3.113 h 46.989 v -3.113 c -12.45,-0.621 -14.938,-2.801 -14.938,-13.691 V 416.777 l -0.621,-0.625 c -10.582,3.426 -18.051,5.293 -31.742,8.715 z"
         style="fill:#ca2e2e;fill-opacity:1;fill-rule:nonzero;stroke:none"
         id="path41772" /><path
         d="m 4624.422,519.152 c -9.336,15.246 -18.047,20.848 -30.805,20.848 -11.203,0 -19.605,-5.602 -25.515,-17.113 -3.426,-7.469 -4.981,-14.004 -5.293,-26.141 h 60.992 c -1.559,-12.758 -3.422,-18.668 -8.403,-24.894 -5.914,-7.157 -15.246,-11.2 -25.515,-11.2 -9.957,0 -19.293,3.422 -26.762,10.266 -9.336,8.094 -14.625,22.094 -14.625,38.277 0,27.692 14.313,44.496 37.031,44.496 18.981,0 33.918,-11.515 42.317,-32.984 z m -61.301,-28.629 c 2.18,-15.558 9.024,-23.027 21.16,-23.027 12.137,0 16.805,5.602 19.293,23.027 z"
         style="fill:#ca2e2e;fill-opacity:1;fill-rule:nonzero;stroke:none"
         id="path41774" /><path
         d="m 4774.566,464.387 h -59.746 c -18.359,0 -31.117,21.781 -32.984,25.515 h 2.18 c 1.242,-1.558 9.336,-11.203 19.601,-11.203 h 22.406 l -13.378,42.942 c -1.868,6.535 -3.114,12.445 -3.114,16.492 0,8.402 4.356,15.871 14.313,15.871 4.668,0 10.269,-1.246 10.269,-8.402 0,-11.204 -9.957,-10.27 -9.957,-19.914 0,-1.868 0.313,-4.047 1.246,-7.161 l 13.067,-39.828 h 31.742 z"
         style="fill:#ca2e2e;fill-opacity:1;fill-rule:nonzero;stroke:none"
         id="path41776" /><path
         d="m 5701.926,354.969 -3.942,-1.516 c -3.031,11.215 -9.394,20.914 -22.125,20.914 -15.16,0 -27.89,-21.219 -45.168,-21.219 -16.976,0 -26.07,10.004 -30.312,25.465 l 3.637,1.516 c 4.546,-9.699 11.519,-16.977 23.039,-16.977 15.156,0 26.371,20.918 44.863,20.918 18.793,0 27.281,-11.824 30.008,-29.101 z"
         style="fill:#000000;fill-opacity:1;fill-rule:nonzero;stroke:none"
         id="path41778" /><path
         d="m 5835.199,397.102 c -13.941,11.519 -19.703,14.55 -28.191,14.55 -10.91,0 -18.188,-6.968 -18.188,-17.277 0,-3.031 0.606,-5.758 2.121,-12.125 l 5.457,-0.605 c 28.797,-4.247 49.411,-18.797 49.411,-35.469 0,-8.184 -5.758,-13.031 -15.457,-13.031 -27.891,0 -58.204,31.828 -58.204,60.925 0,15.461 10.309,26.375 25.465,26.375 13.641,0 28.492,-7.883 40.012,-20.918 z m -39.711,-27.582 c 6.672,-17.282 20.918,-32.133 30.617,-32.133 4.247,0 6.973,3.336 6.973,7.578 0,6.062 -3.637,13.035 -9.699,18.793 -7.277,6.672 -14.551,10.308 -31.223,14.25 z"
         style="fill:#000000;fill-opacity:1;fill-rule:nonzero;stroke:none"
         id="path41780" /><path
         d="m 5860.383,296.617 h 69.113 v 7.578 h -69.113 z"
         style="fill:#000000;fill-opacity:1;fill-rule:nonzero;stroke:none"
         id="path41782" /><g
         id="g41786"
         transform="scale(1,-1)"><path
           d="m 5961.117,-300.363 h 137.168"
           style="fill:none;stroke:#000000;stroke-width:7.58555;stroke-linecap:butt;stroke-linejoin:miter;stroke-miterlimit:10;stroke-dasharray:none;stroke-opacity:1"
           id="path41788" /></g><path
         d="m 6022.371,318.742 h -51.535 l -3.938,14.852 1.817,0.304 c 4.851,-10.308 8.187,-12.125 22.734,-11.824 L 5977.809,373 c -1.817,5.152 -3.938,6.668 -10.305,7.277 v 1.516 h 27.887 v -1.516 c -1.516,0 -3.032,-0.304 -3.637,-0.304 -3.942,-0.305 -4.852,-1.211 -4.852,-3.942 0,-1.515 0,-2.426 0.91,-5.758 l 13.641,-48.199 h 5.152 c 6.973,0 10.004,2.426 10.004,7.883 0,1.211 0,2.727 -0.3,4.242 l 1.816,0.305 z"
         style="fill:#000000;fill-opacity:1;fill-rule:nonzero;stroke:none"
         id="path41790" /><path
         d="m 6085.523,385.066 c -0.91,1.215 -1.82,2.125 -2.121,2.426 -2.73,3.336 -4.851,5.153 -6.062,5.153 -0.91,0 -1.215,-0.606 -1.215,-1.516 0,-0.606 0.305,-2.121 0.91,-4.547 l 6.367,-24.25 c 0.301,-0.301 0.301,-2.121 0.301,-2.727 0,-3.335 -2.422,-6.062 -5.453,-6.062 -2.125,0 -3.941,0.91 -6.367,2.121 -4.547,3.336 -8.488,7.883 -15.156,18.492 2.425,-7.277 3.636,-12.734 3.636,-14.855 0,-3.332 -2.121,-5.758 -5.457,-5.758 -5.758,0 -12.426,6.363 -21.523,20.613 l 5.762,-20.312 -0.305,-0.301 c -5.457,1.211 -7.578,1.516 -15.457,3.031 v 1.516 h 2.422 c 2.425,0 3.64,0.91 3.64,2.121 0,1.211 -2.125,10.004 -5.761,22.129 -2.122,8.183 -2.426,9.094 -3.637,13.945 h 7.273 c 4.547,-15.461 6.063,-19.097 9.399,-23.949 5.457,-8.184 11.215,-13.641 14.551,-13.641 1.21,0 1.82,0.91 1.82,2.426 0,0.91 -3.031,12.43 -9.094,35.164 h 7.274 c 3.636,-15.156 5.757,-20.008 10.609,-26.676 4.851,-6.671 9.699,-10.914 12.43,-10.914 0.91,0 1.816,0.91 1.816,2.121 0,0.305 0,1.516 -0.605,3.336 l -5.758,22.129 c -0.61,3.637 -1.215,5.457 -1.215,6.364 0,3.031 1.515,4.546 3.941,4.546 4.547,0 8.793,-3.332 13.946,-10.304 l 0.605,-0.606 z"
         style="fill:#000000;fill-opacity:1;fill-rule:nonzero;stroke:none"
         id="path41792" /></g></g></svg>
