<?xml version="1.0" encoding="UTF-8" standalone="no"?>
<!-- Created with Inkscape (http://www.inkscape.org/) -->

<svg
   version="1.1"
   id="svg37815"
   xml:space="preserve"
   width="1871.6803"
   height="2496.3625"
   viewBox="0 0 1871.6803 2496.3625"
   sodipodi:docname="fingersDEPOCE.svg"
   inkscape:version="1.1.2 (0a00cf5339, 2022-02-04)"
   xmlns:inkscape="http://www.inkscape.org/namespaces/inkscape"
   xmlns:sodipodi="http://sodipodi.sourceforge.net/DTD/sodipodi-0.dtd"
   xmlns="http://www.w3.org/2000/svg"
   xmlns:svg="http://www.w3.org/2000/svg"><defs
     id="defs37819" /><sodipodi:namedview
     id="namedview37817"
     pagecolor="#ffffff"
     bordercolor="#666666"
     borderopacity="1.0"
     inkscape:pageshadow="2"
     inkscape:pageopacity="0.0"
     inkscape:pagecheckerboard="0"
     showgrid="false"
     inkscape:zoom="0.11953354"
     inkscape:cx="2120.7436"
     inkscape:cy="1602.0608"
     inkscape:window-width="1882"
     inkscape:window-height="1016"
     inkscape:window-x="0"
     inkscape:window-y="0"
     inkscape:window-maximized="1"
     inkscape:current-layer="g37823" /><g
     id="g37821"
     inkscape:groupmode="layer"
     inkscape:label="fingersDEPOCE"
     transform="matrix(1.3333333,0,0,1.3333333,0,9.4409062e-5)"><g
       id="g37823"><g
         id="g37825"><path
           d="m 1048.863,1567.648 -59.484,30.571 v -50.832 h -557.34 v -59.485 h 557.34 v -178.449 h -557.34 v -59.484 h 557.34 V 1071.52 h -557.34 v -59.485 h 557.34 V 797.676 h 59.484 z"
           style="fill:#a90500;fill-opacity:1;fill-rule:nonzero;stroke:#000000;stroke-width:0.749999;stroke-linecap:butt;stroke-linejoin:miter;stroke-miterlimit:4;stroke-dasharray:none;stroke-opacity:1"
           id="path37827" /></g><g
         id="g37829"><path
           d="m 313.074,1763.066 59.485,-45.878 v -50.833 h 557.336 v -59.484 H 372.559 v -178.453 h 557.336 v -59.48 H 372.559 V 1190.484 H 929.895 V 1131 H 372.559 V 650.992 l -59.485,31.356 z"
           style="fill:#000374;fill-opacity:1;fill-rule:nonzero;stroke:#000000;stroke-width:0.749999;stroke-linecap:butt;stroke-linejoin:miter;stroke-miterlimit:4;stroke-dasharray:none;stroke-opacity:1"
           id="path37831" /></g><g
         id="g37833"><path
           d="m 149.312,797.676 v 780.785 h 99.508 v -153.484"
           style="fill:none;stroke:#000374;stroke-width:56.6929;stroke-linecap:butt;stroke-linejoin:miter;stroke-miterlimit:4;stroke-dasharray:none;stroke-opacity:1"
           id="path37835" /></g><g
         id="g37837"><path
           d="M 1221.711,797.676 V 1800.891"
           style="fill:none;stroke:#000000;stroke-width:56.6929;stroke-linecap:butt;stroke-linejoin:miter;stroke-miterlimit:4;stroke-dasharray:56.6929, 56.6929;stroke-dashoffset:0;stroke-opacity:1"
           id="path37839" /></g><g
         id="g37841"><path
           d="M 14.172,733.852 H 1389.586 V 1858.098 H 14.172 Z"
           style="fill:none;stroke:#000000;stroke-width:28.3465;stroke-linecap:butt;stroke-linejoin:miter;stroke-miterlimit:4;stroke-dasharray:none;stroke-opacity:1"
           id="path37843" /></g><g
         id="g37845"><path
           d="m 607.922,366.961 c 0,88.328 -68.176,159.934 -152.277,159.934 -84.098,0 -152.274,-71.606 -152.274,-159.934 0,-88.328 68.176,-159.93 152.274,-159.93 84.101,0 152.277,71.602 152.277,159.93 z"
           style="fill:none;stroke:#000000;stroke-width:21.3312;stroke-linecap:butt;stroke-linejoin:miter;stroke-miterlimit:4;stroke-dasharray:none;stroke-opacity:1"
           id="path37847" /></g><g
         id="g37849"><path
           d="m 1087.883,170.598 c 0,88.328 -68.176,159.933 -152.274,159.933 -84.101,0 -152.277,-71.605 -152.277,-159.933 0,-88.328 68.176,-159.934 152.277,-159.934 84.098,0 152.274,71.606 152.274,159.934 z"
           style="fill:none;stroke:#000000;stroke-width:21.3312;stroke-linecap:butt;stroke-linejoin:miter;stroke-miterlimit:4;stroke-dasharray:none;stroke-opacity:1"
           id="path37851" /></g><g
         id="g37853"><path
           d="M 149.312,797.676 V 372.516 H 306.988"
           style="fill:none;stroke:#000000;stroke-width:28.3465;stroke-linecap:butt;stroke-linejoin:miter;stroke-miterlimit:4;stroke-dasharray:none;stroke-opacity:1"
           id="path37855" /></g><g
         id="g37857"><path
           d="M 149.312,462.516 V 169.25 h 635.793"
           style="fill:none;stroke:#000000;stroke-width:28.3465;stroke-linecap:butt;stroke-linejoin:miter;stroke-miterlimit:4;stroke-dasharray:none;stroke-opacity:1"
           id="path37859" /></g><g
         id="g37861"><path
           d="m 1088.074,169.25 h 133.637 v 646.578"
           style="fill:none;stroke:#000000;stroke-width:28.3465;stroke-linecap:butt;stroke-linejoin:miter;stroke-miterlimit:4;stroke-dasharray:none;stroke-opacity:1"
           id="path37863" /></g><g
         id="g37865"><path
           d="m 609.531,372.516 h 408.106 v 426.375"
           style="fill:none;stroke:#000000;stroke-width:28.3465;stroke-linecap:butt;stroke-linejoin:miter;stroke-miterlimit:4;stroke-dasharray:none;stroke-opacity:1"
           id="path37867" /></g><path
         d="M 920.93,259.73 857.523,93.637 h 23.469 L 933.617,233.48 986.336,93.637 h 23.375 L 946.398,259.73 Z"
         style="fill:#000000;fill-opacity:1;fill-rule:nonzero;stroke:none"
         id="path37871" /><path
         d="m 14.172,961.641 h 1375.414 v 896.457 H 14.172 Z"
         style="fill:#230500;fill-opacity:0.0871094;fill-rule:nonzero;stroke:none"
         id="path37873" /><path
         d="m 185.066,372.516 c 0,19.742 -16.007,35.75 -35.754,35.75 -19.746,0 -35.75,-16.008 -35.75,-35.75 0,-19.746 16.004,-35.754 35.75,-35.754 19.747,0 35.754,16.008 35.754,35.754 z"
         style="fill:#000000;fill-opacity:1;fill-rule:nonzero;stroke:none"
         id="path37875" /><path
         d="m 188.105,529.004 c 0,19.746 -16.007,35.754 -35.753,35.754 -19.743,0 -35.75,-16.008 -35.75,-35.754 0,-19.746 16.007,-35.754 35.75,-35.754 19.746,0 35.753,16.008 35.753,35.754 z"
         style="fill:#000000;fill-opacity:1;fill-rule:nonzero;stroke:none"
         id="path37877" /><g
         id="g37879"><path
           d="M 339.148,683.68 149.312,517.574"
           style="fill:none;stroke:#000000;stroke-width:28.3465;stroke-linecap:butt;stroke-linejoin:miter;stroke-miterlimit:4;stroke-dasharray:none;stroke-opacity:1"
           id="path37881" /></g><path
         style="fill:none;stroke:#000000;stroke-width:28.3464574;stroke-linecap:butt;stroke-linejoin:miter;stroke-opacity:1;stroke-miterlimit:4;stroke-dasharray:none"
         d="M 454.14111,209.50572 V 521.60145"
         id="path38053" /></g></g></svg>
