<?xml version="1.0" encoding="UTF-8" standalone="no"?>
<!-- Created with Inkscape (http://www.inkscape.org/) -->

<svg
   version="1.1"
   id="svg37372"
   xml:space="preserve"
   width="1871.6803"
   height="2496.3625"
   viewBox="0 0 1871.6803 2496.3625"
   sodipodi:docname="fingersDEPO.svg"
   inkscape:version="1.1.2 (0a00cf5339, 2022-02-04)"
   xmlns:inkscape="http://www.inkscape.org/namespaces/inkscape"
   xmlns:sodipodi="http://sodipodi.sourceforge.net/DTD/sodipodi-0.dtd"
   xmlns="http://www.w3.org/2000/svg"
   xmlns:svg="http://www.w3.org/2000/svg"><defs
     id="defs37376" /><sodipodi:namedview
     id="namedview37374"
     pagecolor="#ffffff"
     bordercolor="#666666"
     borderopacity="1.0"
     inkscape:pageshadow="2"
     inkscape:pageopacity="0.0"
     inkscape:pagecheckerboard="0"
     showgrid="false"
     inkscape:zoom="0.47813417"
     inkscape:cx="739.33222"
     inkscape:cy="643.12491"
     inkscape:window-width="1882"
     inkscape:window-height="1016"
     inkscape:window-x="0"
     inkscape:window-y="0"
     inkscape:window-maximized="1"
     inkscape:current-layer="g37380" /><g
     id="g37378"
     inkscape:groupmode="layer"
     inkscape:label="fingersDEPO"
     transform="matrix(1.3333333,0,0,1.3333333,0,9.4409062e-5)"><g
       id="g37380"><g
         id="g37382"><path
           d="m 1048.863,1567.648 -59.484,30.571 v -50.832 h -557.34 v -59.485 h 557.34 v -178.449 h -557.34 v -59.484 h 557.34 V 1071.52 h -557.34 v -59.485 h 557.34 V 797.676 h 59.484 z"
           style="fill:#a90500;fill-opacity:1;fill-rule:nonzero;stroke:#000000;stroke-width:0.749999;stroke-linecap:butt;stroke-linejoin:miter;stroke-miterlimit:4;stroke-dasharray:none;stroke-opacity:1"
           id="path37384" /></g><g
         id="g37386"><path
           d="m 313.074,1763.066 59.485,-45.878 v -50.833 h 557.336 v -59.484 H 372.559 v -178.453 h 557.336 v -59.48 H 372.559 V 1190.484 H 929.895 V 1131 H 372.559 V 650.992 l -59.485,31.356 z"
           style="fill:#710000;fill-opacity:1;fill-rule:nonzero;stroke:#000000;stroke-width:0.749999;stroke-linecap:butt;stroke-linejoin:miter;stroke-miterlimit:4;stroke-dasharray:none;stroke-opacity:1"
           id="path37388" /></g><g
         id="g37390"><path
           d="m 149.312,797.676 v 780.785 h 99.508 v -153.484"
           style="fill:none;stroke:#000374;stroke-width:56.6929;stroke-linecap:butt;stroke-linejoin:miter;stroke-miterlimit:4;stroke-dasharray:none;stroke-opacity:1"
           id="path37392" /></g><g
         id="g37394"><path
           d="M 1221.711,797.676 V 1800.891"
           style="fill:none;stroke:#000000;stroke-width:56.6929;stroke-linecap:butt;stroke-linejoin:miter;stroke-miterlimit:4;stroke-dasharray:56.6929, 56.6929;stroke-dashoffset:0;stroke-opacity:1"
           id="path37396" /></g><g
         id="g37398"><path
           d="M 14.172,733.852 H 1389.586 V 1858.098 H 14.172 Z"
           style="fill:none;stroke:#000000;stroke-width:28.3465;stroke-linecap:butt;stroke-linejoin:miter;stroke-miterlimit:4;stroke-dasharray:none;stroke-opacity:1"
           id="path37400" /></g><g
         id="g37402"><path
           d="m 607.922,456.961 c 0,88.328 -68.176,159.934 -152.277,159.934 -84.098,0 -152.274,-71.606 -152.274,-159.934 0,-88.328 68.176,-159.93 152.274,-159.93 84.101,0 152.277,71.602 152.277,159.93 z"
           style="fill:none;stroke:#000000;stroke-width:21.3312;stroke-linecap:butt;stroke-linejoin:miter;stroke-miterlimit:4;stroke-dasharray:none;stroke-opacity:1"
           id="path37404" /></g><g
         id="g37406"><path
           d="m 1087.883,170.598 c 0,88.328 -68.176,159.933 -152.274,159.933 -84.101,0 -152.277,-71.605 -152.277,-159.933 0,-88.328 68.176,-159.934 152.277,-159.934 84.098,0 152.274,71.606 152.274,159.934 z"
           style="fill:none;stroke:#000000;stroke-width:21.3312;stroke-linecap:butt;stroke-linejoin:miter;stroke-miterlimit:4;stroke-dasharray:none;stroke-opacity:1"
           id="path37408" /></g><g
         id="g37410"><path
           d="M 149.312,797.676 V 462.516 H 306.988"
           style="fill:none;stroke:#000000;stroke-width:28.3465;stroke-linecap:butt;stroke-linejoin:miter;stroke-miterlimit:4;stroke-dasharray:none;stroke-opacity:1"
           id="path37412" /></g><g
         id="g37414"><path
           d="M 149.312,462.516 V 169.25 h 635.793"
           style="fill:none;stroke:#000000;stroke-width:28.3465;stroke-linecap:butt;stroke-linejoin:miter;stroke-miterlimit:4;stroke-dasharray:none;stroke-opacity:1"
           id="path37416" /></g><g
         id="g37418"><path
           d="m 1088.074,169.25 h 133.637 v 646.578"
           style="fill:none;stroke:#000000;stroke-width:28.3465;stroke-linecap:butt;stroke-linejoin:miter;stroke-miterlimit:4;stroke-dasharray:none;stroke-opacity:1"
           id="path37420" /></g><g
         id="g37422"><path
           d="m 609.531,462.516 h 408.106 v 335.16"
           style="fill:none;stroke:#000000;stroke-width:28.3465;stroke-linecap:butt;stroke-linejoin:miter;stroke-miterlimit:4;stroke-dasharray:none;stroke-opacity:1"
           id="path37424" /></g><path
         d="M 920.93,259.73 857.523,93.637 h 23.469 L 933.617,233.48 986.336,93.637 h 23.375 L 946.398,259.73 Z"
         style="fill:#000000;fill-opacity:1;fill-rule:nonzero;stroke:none"
         id="path37428" /><path
         d="m 14.172,961.641 h 1375.414 v 896.457 H 14.172 Z"
         style="fill:#230500;fill-opacity:0.0871094;fill-rule:nonzero;stroke:none"
         id="path37430" /><path
         d="m 185.066,462.516 c 0,19.742 -16.007,35.75 -35.754,35.75 -19.746,0 -35.75,-16.008 -35.75,-35.75 0,-19.746 16.004,-35.754 35.75,-35.754 19.747,0 35.754,16.008 35.754,35.754 z"
         style="fill:#000000;fill-opacity:1;fill-rule:nonzero;stroke:none"
         id="path37432" /><path
         style="fill:none;stroke:#000000;stroke-width:28.3464574;stroke-linecap:butt;stroke-linejoin:miter;stroke-opacity:1;stroke-miterlimit:4;stroke-dasharray:none"
         d="M 455.91651,302.90466 V 614.1487"
         id="path37604" /></g></g></svg>
